<svg width="52" height="40" viewBox="0 0 52 40" fill="none" xmlns="http://www.w3.org/2000/svg">
<g clip-path="url(#clip0_0_1)">
<path d="M31.0447 39.6721C35.268 39.6721 38.7641 36.199 37.9826 32.0241C37.4925 29.4065 36.7509 26.8404 35.7654 24.3647C33.8333 19.5118 31.0016 15.1021 27.4316 11.3878C23.8616 7.67345 19.6235 4.72706 14.9592 2.71688C12.6565 1.72446 10.2721 0.969813 7.84043 0.460057C3.7059 -0.406679 0.24707 3.11603 0.24707 7.36437V31.9798C0.24707 36.2281 3.67078 39.6721 7.89413 39.6721H31.0447Z" fill="#615DFF"/>
<g style="mix-blend-mode:multiply">
<path d="M21.2021 39.6721C16.9788 39.6721 13.4826 36.199 14.2643 32.0241C14.7543 29.4065 15.4959 26.8404 16.4814 24.3647C18.4136 19.5118 21.2453 15.1021 24.8152 11.3878C28.3852 7.67345 32.6233 4.72706 37.2876 2.71688C39.5904 1.72446 41.9747 0.969813 44.4064 0.460057C48.541 -0.406679 51.9997 3.11603 51.9997 7.36437V31.9798C51.9997 36.2281 48.576 39.6721 44.3527 39.6721H21.2021Z" fill="#3DD9EB"/>
</g>
</g>
<defs>
<clipPath id="clip0_0_1">
<rect width="52" height="40" fill="white"/>
</clipPath>
</defs>
</svg>
